# xmcd
#
# Track frame offsets:
#	150
#	12627
#	23480
#	35627
#	51959
#	70637
#	85008
#	100648
#	123774
#	141166
#	153339
#	173236
#	185679
#	201261
#	212731
#	226784
#	245781
#
# Disc length: 3502 seconds
#
# Revision: 0
# Processed by: cddbd v1.5.2PL0 Copyright (c) Steve Scherf et al.
# Submitted via: dBpowerAMP V4.0
#
DISCID=e20dac11
DTITLE=Commander Cody - Commandere Cody's Greatest Hits
DYEAR=2007
DGENRE=Blues
TTITLE0=House Of Blue Lights
TTITLE1=Triple Cheese Side Of Fries 
TTITLE2=Lost It Tonight
TTITLE3=Boogie Man Boogie
TTITLE4=Midnight On The Strand
TTITLE5=They Kicked Me Outta The Band
TTITLE6=Roll Yer Own
TTITLE7=Beat Me Daddy 8 To The Bar
TTITLE8=Down To Seeds And Stems Again
TTITLE9=Don't Let Go
TTITLE10=Oh Momma Momma
TTITLE11=Hot Rod Lincoln
TTITLE12=Too Much Fun
TTITLE13=Midnight Shift
TTITLE14=It Should've Been Me
TTITLE15=Riot In Cell Block # 9
TTITLE16=Smoke Smoke Smoke
EXTD=
EXTT0=
EXTT1=
EXTT2=
EXTT3=
EXTT4=
EXTT5=
EXTT6=
EXTT7=
EXTT8=
EXTT9=
EXTT10=
EXTT11=
EXTT12=
EXTT13=
EXTT14=
EXTT15=
EXTT16=
PLAYORDER=
